REM DIRINDEX 1\2,1\3,1\4,1\5
REM DIRNAME "folder01","folder02","folder03","folder04","folder05"
TITLE ""
FILE "P1Q_t_0310-0319.mp3" MP3
  TRACK 01 AUDIO
    TITLE "3:cjc173_1852"
    INDEX 01 00:00:00
  TRACK 02 AUDIO
    TITLE "0:"
    INDEX 01 00:01:12
  TRACK 03 AUDIO
    TITLE "4:cjc173_1853"
    INDEX 01 00:01:33
  TRACK 04 AUDIO
    TITLE "0:"
    INDEX 01 00:04:28
  TRACK 05 AUDIO
    TITLE "5:cjc173_1854"
    INDEX 01 00:04:47
  TRACK 06 AUDIO
    TITLE "0:"
    INDEX 01 00:10:34
  TRACK 07 AUDIO
    TITLE "3:cjc173_1855"
    INDEX 01 00:11:04
  TRACK 08 AUDIO
    TITLE "0:"
    INDEX 01 00:12:13
  TRACK 09 AUDIO
    TITLE "4:cjc173_1856"
    INDEX 01 00:12:33
  TRACK 10 AUDIO
    TITLE "0:"
    INDEX 01 00:15:61
  TRACK 11 AUDIO
    TITLE "5:cjc173_1857"
    INDEX 01 00:16:05
  TRACK 12 AUDIO
    TITLE "0:"
    INDEX 01 00:22:43
  TRACK 13 AUDIO
    TITLE "3:cjc173_1858"
    INDEX 01 00:23:17
  TRACK 14 AUDIO
    TITLE "0:"
    INDEX 01 00:24:34
  TRACK 15 AUDIO
    TITLE "4:cjc173_1859"
    INDEX 01 00:24:56
  TRACK 16 AUDIO
    TITLE "0:"
    INDEX 01 00:26:41
  TRACK 17 AUDIO
    TITLE "5:cjc173_1860"
    INDEX 01 00:26:63
  TRACK 18 AUDIO
    TITLE "0:"
    INDEX 01 00:31:70
  TRACK 19 AUDIO
    TITLE "3:cjc173_1861"
    INDEX 01 00:32:44
  TRACK 20 AUDIO
    TITLE "0:"
    INDEX 01 00:33:55
  TRACK 21 AUDIO
    TITLE "4:cjc173_1862"
    INDEX 01 00:34:01
  TRACK 22 AUDIO
    TITLE "0:"
    INDEX 01 00:35:52
  TRACK 23 AUDIO
    TITLE "5:cjc173_1863"
    INDEX 01 00:35:71
  TRACK 24 AUDIO
    TITLE "0:"
    INDEX 01 00:40:65
  TRACK 25 AUDIO
    TITLE "3:cjc173_1864"
    INDEX 01 00:41:37
  TRACK 26 AUDIO
    TITLE "0:"
    INDEX 01 00:42:52
  TRACK 27 AUDIO
    TITLE "4:cjc173_1865"
    INDEX 01 00:42:71
  TRACK 28 AUDIO
    TITLE "0:"
    INDEX 01 00:47:10
  TRACK 29 AUDIO
    TITLE "5:cjc173_1866"
    INDEX 01 00:47:29
  TRACK 30 AUDIO
    TITLE "0:"
    INDEX 01 00:52:52
  TRACK 31 AUDIO
    TITLE "3:cjc173_1867"
    INDEX 01 00:53:22
  TRACK 32 AUDIO
    TITLE "0:"
    INDEX 01 00:54:47
  TRACK 33 AUDIO
    TITLE "4:cjc173_1868"
    INDEX 01 00:54:67
  TRACK 34 AUDIO
    TITLE "0:"
    INDEX 01 00:58:27
  TRACK 35 AUDIO
    TITLE "5:cjc173_1869"
    INDEX 01 00:58:47
  TRACK 36 AUDIO
    TITLE "0:"
    INDEX 01 01:02:43
  TRACK 37 AUDIO
    TITLE "3:cjc173_1870"
    INDEX 01 01:03:15
  TRACK 38 AUDIO
    TITLE "0:"
    INDEX 01 01:04:22
  TRACK 39 AUDIO
    TITLE "4:cjc173_1871"
    INDEX 01 01:04:40
  TRACK 40 AUDIO
    TITLE "0:"
    INDEX 01 01:09:37
  TRACK 41 AUDIO
    TITLE "5:cjc173_1872"
    INDEX 01 01:09:60
  TRACK 42 AUDIO
    TITLE "0:"
    INDEX 01 01:13:72
  TRACK 43 AUDIO
    TITLE "3:cjc173_1873"
    INDEX 01 01:14:42
  TRACK 44 AUDIO
    TITLE "0:"
    INDEX 01 01:15:59
  TRACK 45 AUDIO
    TITLE "4:cjc173_1874"
    INDEX 01 01:16:06
  TRACK 46 AUDIO
    TITLE "0:"
    INDEX 01 01:19:61
  TRACK 47 AUDIO
    TITLE "5:cjc173_1875"
    INDEX 01 01:20:07
  TRACK 48 AUDIO
    TITLE "0:"
    INDEX 01 01:24:05
  TRACK 49 AUDIO
    TITLE "3:cjc173_1876"
    INDEX 01 01:24:60
  TRACK 50 AUDIO
    TITLE "0:"
    INDEX 01 01:25:71
  TRACK 51 AUDIO
    TITLE "4:cjc173_1877"
    INDEX 01 01:26:18
  TRACK 52 AUDIO
    TITLE "0:"
    INDEX 01 01:27:56
  TRACK 53 AUDIO
    TITLE "5:cjc173_1878"
    INDEX 01 01:28:01
  TRACK 54 AUDIO
    TITLE "0:"
    INDEX 01 01:32:44
  TRACK 55 AUDIO
    TITLE "3:cjc173_1879"
    INDEX 01 01:33:12
  TRACK 56 AUDIO
    TITLE "0:"
    INDEX 01 01:34:15
  TRACK 57 AUDIO
    TITLE "4:cjc173_1880"
    INDEX 01 01:34:37
  TRACK 58 AUDIO
    TITLE "0:"
    INDEX 01 01:37:57
  TRACK 59 AUDIO
    TITLE "5:cjc173_1881"
    INDEX 01 01:38:03
  TRACK 60 AUDIO
    TITLE "0:"
    INDEX 01 01:41:58
